<svg width="116" height="34" viewBox="0 0 116 34" fill="none" xmlns="http://www.w3.org/2000/svg">
<g id="logo">
<g id="Vector">
<path d="M41.5535 23.8945V9.16119H43.2106V16.0097H43.2566L50.3434 9.16119H52.4828L44.8668 16.4378L52.7129 23.8945H50.527L43.2561 16.8883H43.2101V23.8945H41.5535Z" fill="#1F2A44"/>
<path d="M62.3308 17.3841V17.2264C62.3308 16.0549 62.0316 15.2024 61.4334 14.6694C60.8352 14.1364 60.0528 13.8697 59.086 13.8697C58.1044 13.8697 57.318 14.1364 56.7276 14.6694C56.1372 15.2029 55.8417 16.0549 55.8417 17.2264V23.8947H54.3001V17.2264C54.3001 16.4302 54.4152 15.7359 54.6452 15.1425C54.8753 14.5496 55.2011 14.0535 55.6231 13.6557C56.0447 13.2578 56.5513 12.9609 57.1417 12.7658C57.7322 12.5707 58.3801 12.4729 59.086 12.4729C59.7919 12.4729 60.4362 12.5707 61.0188 12.7658C61.6018 12.9614 62.1039 13.2578 62.5259 13.6557C62.9474 14.054 63.2737 14.5496 63.5038 15.1425C63.7338 15.7359 63.8489 16.4379 63.8489 17.2489V17.3841H62.3308Z" fill="#1F2A44"/>
<path d="M66.4941 18.8258C66.5401 19.4116 66.6856 19.9446 66.9309 20.4253C67.1761 20.9061 67.495 21.3229 67.8857 21.6756C68.2773 22.0284 68.7375 22.3033 69.2663 22.4979C69.7955 22.6935 70.3822 22.7903 71.0265 22.7903C71.9316 22.7903 72.7176 22.6178 73.3849 22.2726C74.0522 21.9275 74.5699 21.4319 74.938 20.7858H76.6177C76.1722 21.8221 75.4631 22.6479 74.4893 23.2639C73.5151 23.8798 72.361 24.1875 71.0265 24.1875C70.1213 24.1875 69.2966 24.0411 68.553 23.7478C67.8089 23.4554 67.1642 23.0494 66.6202 22.5317C66.0754 22.0135 65.6538 21.394 65.3547 20.6731C65.0561 19.9518 64.906 19.1714 64.906 18.3302C64.906 17.4895 65.0556 16.7078 65.3547 15.9873C65.6538 15.2664 66.0754 14.6469 66.6202 14.1288C67.1646 13.6106 67.8089 13.2051 68.553 12.9122C69.2966 12.6194 70.1213 12.4729 71.0265 12.4729C71.916 12.4729 72.737 12.6194 73.4884 12.9122C74.2399 13.2051 74.8805 13.6106 75.4102 14.1288C75.9389 14.6469 76.3535 15.2664 76.6522 15.9873C76.9513 16.7082 77.1013 17.4895 77.1013 18.3302V18.8258H66.4941ZM71.0265 13.8697C69.8143 13.8697 68.8098 14.1963 68.0123 14.8496C67.2148 15.503 66.7238 16.3631 66.5397 17.4291V17.4742H75.4902V17.4291C75.3982 16.9033 75.2256 16.423 74.9725 15.9873C74.7194 15.5516 74.401 15.1763 74.0176 14.8609C73.6339 14.5455 73.1893 14.3013 72.6831 14.1288C72.1769 13.9562 71.6247 13.8697 71.0265 13.8697Z" fill="#1F2A44"/>
<path d="M89.2281 23.8946V21.2589H89.1816C88.7983 22.16 88.1808 22.8732 87.3299 23.399C86.4781 23.9244 85.4776 24.1875 84.3272 24.1875C83.5297 24.1875 82.7741 24.0523 82.0608 23.782C81.3475 23.5117 80.7221 23.1251 80.1855 22.6218C79.6485 22.119 79.2229 21.5035 78.9086 20.7745C78.5938 20.0464 78.4373 19.2313 78.4373 18.3302C78.4373 17.4895 78.5869 16.7078 78.886 15.9873C79.1851 15.2664 79.6066 14.6469 80.1515 14.1288C80.6959 13.6106 81.3402 13.2051 82.0843 12.9122C82.8279 12.6194 83.6526 12.4729 84.5578 12.4729C85.4473 12.4729 86.2682 12.6158 87.0197 12.901C87.7712 13.1862 88.4155 13.5921 88.9525 14.1175C89.4895 14.6433 89.9073 15.2705 90.2069 15.9986C90.5056 16.7271 90.6556 17.5269 90.6556 18.3978V23.8946H89.2281ZM84.5573 22.7903C85.2324 22.7903 85.8495 22.6777 86.4095 22.4524C86.9691 22.2271 87.4486 21.9158 87.8476 21.5179C88.2461 21.1201 88.5567 20.6502 88.779 20.1099C89.0013 19.5693 89.1131 18.9759 89.1131 18.3302C89.1131 17.6846 89.0017 17.0912 88.779 16.5505C88.5567 16.0099 88.2461 15.5404 87.8476 15.1425C87.4486 14.7447 86.9691 14.4329 86.4095 14.2076C85.849 13.9823 85.2319 13.8697 84.5573 13.8697C83.8826 13.8697 83.2646 13.9823 82.7051 14.2076C82.1455 14.4329 81.666 14.7447 81.267 15.1425C80.868 15.5404 80.5574 16.0099 80.3356 16.5505C80.1133 17.0912 80.0015 17.685 80.0015 18.3302C80.0015 18.9763 80.1128 19.5693 80.3356 20.1099C80.5574 20.6502 80.868 21.1201 81.267 21.5179C81.666 21.9158 82.145 22.2271 82.7051 22.4524C83.2651 22.6777 83.8822 22.7903 84.5573 22.7903Z" fill="#1F2A44"/>
<path d="M101.79 19.7948C101.79 20.531 101.683 21.1731 101.468 21.7205C101.253 22.2693 100.95 22.7271 100.559 23.0952C100.167 23.4628 99.704 23.7372 99.167 23.917C98.6299 24.0972 98.0317 24.1878 97.3727 24.1878C96.7128 24.1878 96.1072 24.0977 95.555 23.917C95.0028 23.7372 94.5306 23.4628 94.1399 23.0952C93.7492 22.7275 93.4455 22.2693 93.2311 21.7205C93.0157 21.1726 92.9089 20.5306 92.9089 19.7948V8.84619H94.4505V12.7661H101.146V14.1403H94.4505V19.7948C94.4505 20.8162 94.7151 21.5709 95.2448 22.0584C95.7736 22.5469 96.4832 22.7906 97.3732 22.7906C98.247 22.7906 98.9529 22.5509 99.49 22.0697C100.027 21.5894 100.295 20.8307 100.295 19.7944V19.5466H101.791V19.7948H101.79Z" fill="#1F2A44"/>
<path d="M104.85 18.8258C104.896 19.4116 105.042 19.9446 105.287 20.4253C105.532 20.9061 105.851 21.3229 106.242 21.6756C106.633 22.0284 107.094 22.3033 107.622 22.4979C108.152 22.6935 108.738 22.7903 109.383 22.7903C110.288 22.7903 111.074 22.6178 111.741 22.2726C112.408 21.9275 112.926 21.4319 113.294 20.7858H114.974C114.528 21.8221 113.819 22.6479 112.845 23.2639C111.871 23.8798 110.717 24.1875 109.383 24.1875C108.477 24.1875 107.653 24.0411 106.909 23.7478C106.165 23.4554 105.52 23.0494 104.976 22.5317C104.431 22.0135 104.01 21.394 103.711 20.6731C103.412 19.9518 103.262 19.1714 103.262 18.3302C103.262 17.4895 103.412 16.7078 103.711 15.9873C104.01 15.2664 104.431 14.6469 104.976 14.1288C105.521 13.6106 106.165 13.2051 106.909 12.9122C107.653 12.6194 108.477 12.4729 109.383 12.4729C110.272 12.4729 111.093 12.6194 111.845 12.9122C112.596 13.2051 113.237 13.6106 113.766 14.1288C114.295 14.6469 114.71 15.2664 115.008 15.9873C115.307 16.7082 115.457 17.4895 115.457 18.3302V18.8258H104.85ZM109.383 13.8697C108.171 13.8697 107.166 14.1963 106.369 14.8496C105.571 15.503 105.08 16.3631 104.896 17.4291V17.4742H113.847V17.4291C113.755 16.9033 113.582 16.423 113.329 15.9873C113.076 15.5516 112.758 15.1763 112.374 14.8609C111.99 14.5455 111.546 14.3013 111.04 14.1288C110.533 13.9562 109.981 13.8697 109.383 13.8697Z" fill="#1F2A44"/>
</g>
<g id="Logo Icon">
<path id="Vector_2" d="M17.4574 34C26.8462 34 34.4574 26.3888 34.4574 17C34.4574 7.61116 26.8462 0 17.4574 0C8.06856 0 0.457397 7.61116 0.457397 17C0.457397 26.3888 8.06856 34 17.4574 34Z" fill="url(#paint0_linear_20_10199)"/>
<path id="Vector_3" d="M13.82 15.7176C13.4774 16.2177 13.5451 16.687 14.0026 16.8784C14.4414 17.0623 14.7361 16.869 14.9839 16.5206C16.1453 14.8848 17.7648 14.0974 19.8255 14.243C20.4129 14.2846 20.9998 14.4741 21.561 14.665C22.0275 14.8234 22.1918 15.244 21.9954 15.607C21.7782 16.0083 21.4021 16.1042 21.0037 15.9213C19.2525 15.1178 17.0965 15.8154 16.0935 17.3842C15.4587 18.3772 14.1463 18.614 13.1601 18.0123C12.1275 17.3823 11.8264 16.1369 12.5184 15.1174C14.1339 12.7366 16.4538 11.5465 19.4445 11.4492C21.6686 11.5404 23.5166 12.2522 24.9629 13.5912L24.5536 9.81486C24.4835 9.16807 23.9143 8.67663 23.2352 8.67663H21.9544C21.9544 6.78605 20.0408 4.59204 17.6888 4.59204C15.3368 4.59204 13.4232 6.78605 13.4232 8.67663H11.9279C11.2429 8.67663 10.6707 9.17639 10.6079 9.82954L9.61409 20.1699C10.2503 21.3076 11.1531 22.1919 12.3466 22.8115C15.398 24.3944 19.2011 23.4723 21.103 20.6936C21.4159 20.2366 21.3749 19.8046 20.9968 19.5782C20.6419 19.3655 20.2362 19.4945 19.9262 19.9199C18.4079 22.0019 15.7376 22.795 13.4863 21.8072C13.24 21.6989 12.9908 21.4645 12.8901 21.2305C12.8224 21.0727 12.9523 20.6988 13.1033 20.6246C13.3476 20.5041 13.7203 20.4511 13.9715 20.5419C15.3383 21.0349 16.6201 20.9361 17.7919 20.0981C18.1661 19.8306 18.483 19.4661 18.7564 19.0984C19.5096 18.0856 20.7441 17.7892 21.7708 18.4145C22.8157 19.0507 23.0882 20.2999 22.3606 21.3563C20.7402 23.7095 18.4311 24.8869 15.4015 24.9725C12.9375 24.8652 10.9192 23.9222 9.41024 22.2278L9.02544 26.1958C8.95328 26.9399 9.5648 27.5824 10.3453 27.5824H25.0166C25.8029 27.5824 26.4163 26.9308 26.335 26.1819L25.2383 16.082C22.8019 11.8868 16.5639 11.7086 13.82 15.7176ZM17.6888 6.1234C19.1587 6.1234 20.3547 7.2587 20.3547 8.67663H15.0224C15.0229 7.2587 16.2189 6.1234 17.6888 6.1234Z" fill="white"/>
</g>
</g>
<defs>
<linearGradient id="paint0_linear_20_10199" x1="0.4573" y1="16.9999" x2="34.4577" y2="16.9999" gradientUnits="userSpaceOnUse">
<stop stop-color="#EF336E"/>
<stop offset="1" stop-color="#F69240"/>
</linearGradient>
</defs>
</svg>
